{"title":"Fresh Off The Boat S1-S2 Web-DL 5.1 1080p x265 HEVC [UTR]","uid":14842122,"size":8651095648,"categoryP":"video","categoryS":"hd___tv_shows","magnet":"?xt=urn:btih:bf4e36a13307b7e8521e5c31aaf71c8ecaf5401b&amp;dn=Fresh+Off+The+Boat+S1-S2+Web-DL+5.1+1080p+x265+HEVC+%5BUTR%5D&amp;tr=udp%3A%2F%2Ftracker.leechers-paradise.org%3A6969&amp;tr=udp%3A%2F%2Fzer0day.ch%3A1337&amp;tr=udp%3A%2F%2Fopen.demonii.com%3A1337&amp;tr=udp%3A%2F%2Ftracker.coppersurfer.tk%3A6969&amp;tr=udp%3A%2F%2Fexodus.desync.com%3A6969","seeders":1,"leechers":0,"uploader":"ByteShareReUp","files":37,"time":1465384278,"description":"Fresh Off The Boat S1-S2 Web-DL 5.1 1080p x265 HEVC-ByteShare[UTR]\r\n\r\nA UniTeam Release (UTR): \nhttp://extraimago.com/images/2015/09/02/gv8mpWw.png\r\n\r\nThe UniTeam release page: https://kat.cr/community/show/hevc-x265-club-uniteam-releases-thread-96931/?page=1000\r\nFor more of my uploads please go to my release page: https://kat.cr/community/show/byteshare-releases/?page=1000\r\nor use an RSS feed with your bittorrent application of choice: https://kat.cr/usearch/byteshare/?rss=1\r\n\r\nScreenshots: \nhttps://yuq.me/users/48/311/u8PMVL0vUZ.jpg \nhttps://yuq.me/users/48/311/KtlEZi9Iu7.jpg \nhttps://yuq.me/users/48/311/J7Aw8eQ1YU.jpg \nhttps://yuq.me/users/48/311/5kMBOELwdX.jpg \nhttps://yuq.me/users/48/311/c0mIzpihJ1.jpg\r\n\r\nFile Info:\r\nFormat                      : HEVC\r\nFormat/Info                 : High Efficiency Video Coding\r\nFormat profile              :   @Main\r\nCodec ID                    : V_MPEGH/ISO/HEVC\r\nDuration                    : 21mn 38s\r\nBit rate                    : 2 496 Kbps\r\nWidth                       : 1 920 pixels\r\nHeight                      : 1 080 pixels\r\nDisplay aspect ratio        : 16:9\r\nFrame rate mode             : Constant\r\nFrame rate                  : 23.976 (24000/1001) fps\r\nColor space                 : YUV\r\nChroma subsampling          : 4:2:0\r\nBit depth                   : 8 bits\r\nBits/(Pixel*Frame)          : 0.050\r\nStream size                 : 386 MiB (91%)\r\nWriting library             : x265 1.9 8bit\r\nLanguage                    : English\r\nDefault                     : Yes\r\nForced                      : No\r\nColor range                 : Limited\r\nColor primaries             : BT.709\r\nTransfer characteristics    : BT.709\r\nMatrix coefficients         : BT.709\r\n\r\nAudio\r\nFormat                      : AAC\r\nFormat/Info                 : Advanced Audio Codec\r\nFormat profile              : HE-AAC / LC\r\nCodec ID                    : A_AAC\r\nDuration                    : 21mn 38s\r\nBit rate                    : 256 Kbps\r\nChannel(s)                  : 6 channels\r\nSampling rate               : 48.0 KHz / 24.0 KHz\r\nFrame rate                  : 23.438 fps (1024 spf)\r\nCompression mode            : Lossy\r\nDelay relative to video     : -105ms\r\nStream size                 : 39.6 MiB (9%)\r\nTitle                       : Surround\r\nLanguage                    : English\r\nDefault                     : Yes\r\nForced                      : No\r\n\r\nText #1\r\nFormat                      : ASS\r\nCodec ID                    : S_TEXT/ASS\r\nCodec ID/Info               : Advanced Sub Station Alpha\r\nDuration                    : 21mn 28s\r\nBit rate                    : 164 bps\r\nCount of elements           : 477\r\nCompression mode            : Lossless\r\nStream size                 : 25.9 KiB (0%)\r\nLanguage                    : English\r\nDefault                     : No\r\nForced                      : No\r\n\r\nText #2\r\nFormat                      : UTF-8\r\nCodec ID                    : S_TEXT/UTF8\r\nCodec ID/Info               : UTF-8 Plain Text\r\nDuration                    : 21mn 28s\r\nBit rate                    : 96 bps\r\nCount of elements           : 477\r\nStream size                 : 15.2 KiB (0%)\r\nTitle                       : ENG -Web-DL\r\nLanguage                    : English\r\nDefault                     : Yes\r\nForced                      : No\r\n\r\nPlease seed &amp; leave feedback","torrent":{"xt":"urn:btih:bf4e36a13307b7e8521e5c31aaf71c8ecaf5401b","amp;dn":"Fresh+Off+The+Boat+S1-S2+Web-DL+5.1+1080p+x265+HEVC+%5BUTR%5D","amp;tr":["udp%3A%2F%2Ftracker.leechers-paradise.org%3A6969","udp%3A%2F%2Fzer0day.ch%3A1337","udp%3A%2F%2Fopen.demonii.com%3A1337","udp%3A%2F%2Ftracker.coppersurfer.tk%3A6969","udp%3A%2F%2Fexodus.desync.com%3A6969"],"infoHash":"bf4e36a13307b7e8521e5c31aaf71c8ecaf5401b","infoHashBuffer":{"type":"Buffer","data":[191,78,54,161,51,7,183,232,82,30,92,49,170,247,28,142,202,245,64,27]},"announce":[],"urlList":[]}}